<?xml version="1.0" encoding="UTF-8" standalone="no"?>
<!DOCTYPE svg PUBLIC "-//W3C//DTD SVG 1.1//EN" "http://www.w3.org/Graphics/SVG/1.1/DTD/svg11.dtd">
<svg width="100%" height="100%" viewBox="0 0 1000 1000" version="1.1" xmlns="http://www.w3.org/2000/svg" xmlns:xlink="http://www.w3.org/1999/xlink" xml:space="preserve" style="fill-rule:evenodd;clip-rule:evenodd;stroke-linejoin:round;stroke-miterlimit:1.41421;">
    <g transform="matrix(4.98772,0,0,4.99993,-610.032,-1124.97)">
        <g>
            <g transform="matrix(0.230769,0,0,1.33333,173.827,270.333)">
                <rect x="135" y="101" width="130" height="15" style="fill:rgb(135,0,203);"/>
            </g>
            <g transform="matrix(0.682182,-0.682182,0.707107,0.707107,-162.2,371.201)">
                <path d="M251.679,318.89C262.37,329.204 276.871,335 291.99,335C323.476,335 349,310.376 349,280L328.327,280C328.327,299.361 312.059,315.056 291.99,315.056C282.353,315.056 273.153,311.323 266.338,304.748L251.679,318.89Z" style="fill:rgb(135,0,203);"/>
            </g>
        </g>
        <g>
            <g transform="matrix(0.307692,0,0,1.33333,113.597,270.333)">
                <rect x="135" y="101" width="130" height="15" style="fill:rgb(255,139,210);"/>
            </g>
            <g transform="matrix(0.461538,0,0,1.33333,112.673,180.333)">
                <rect x="135" y="101" width="130" height="15" style="fill:rgb(255,139,210);"/>
            </g>
            <g transform="matrix(0.307692,0,0,1.33333,113.597,90.3333)">
                <rect x="135" y="101" width="130" height="15" style="fill:rgb(255,139,210);"/>
            </g>
            <g transform="matrix(0.461538,0,0,1.33333,112.673,90.3333)">
                <rect x="135" y="101" width="130" height="15" style="fill:rgb(255,139,210);"/>
            </g>
            <g transform="matrix(0.682182,-0.682182,0.707107,0.707107,-162.2,281.201)">
                <path d="M251.68,318.89C262.371,329.204 276.871,335 291.99,335C323.455,335 349,310.355 349,280C349,265.413 342.997,251.422 332.305,241.107L317.644,255.25C324.458,261.824 328.327,270.703 328.327,280C328.327,299.348 312.045,315.056 291.99,315.056C282.353,315.056 273.153,311.323 266.338,304.748L251.68,318.89Z" style="fill:rgb(255,139,210);"/>
            </g>
            <g transform="matrix(0.153846,0,0,13.3333,154.212,-1121.67)">
                <rect x="135" y="101" width="130" height="15" style="fill:rgb(255,139,210);"/>
            </g>
        </g>
    </g>
</svg>
